<?xml version="1.0" encoding="UTF-8" standalone="no"?>
<!-- Created with Inkscape (http://www.inkscape.org/) -->

<svg
   width="210mm"
   height="297mm"
   viewBox="0 0 210 297"
   version="1.1"
   id="svg5"
   xml:space="preserve"
   inkscape:version="1.2.2 (b0a8486541, 2022-12-01)"
   sodipodi:docname="logo.svg"
   xmlns:inkscape="http://www.inkscape.org/namespaces/inkscape"
   xmlns:sodipodi="http://sodipodi.sourceforge.net/DTD/sodipodi-0.dtd"
   xmlns="http://www.w3.org/2000/svg"
   xmlns:svg="http://www.w3.org/2000/svg"><sodipodi:namedview
     id="namedview7"
     pagecolor="#ffffff"
     bordercolor="#000000"
     borderopacity="0.25"
     inkscape:showpageshadow="2"
     inkscape:pageopacity="0.0"
     inkscape:pagecheckerboard="0"
     inkscape:deskcolor="#d1d1d1"
     inkscape:document-units="mm"
     showgrid="false"
     inkscape:zoom="14.638496"
     inkscape:cx="225.46715"
     inkscape:cy="260.23848"
     inkscape:window-width="3840"
     inkscape:window-height="2011"
     inkscape:window-x="0"
     inkscape:window-y="440"
     inkscape:window-maximized="1"
     inkscape:current-layer="layer1" /><defs
     id="defs2"><rect
       x="120.9052"
       y="210.37363"
       width="168.18145"
       height="88.168642"
       id="rect376" /></defs><g
     inkscape:label="Layer 1"
     inkscape:groupmode="layer"
     id="layer1"><text
       xml:space="preserve"
       transform="scale(0.26458333)"
       id="text374"
       style="fill:#000000;white-space:pre;shape-inside:url(#rect376)" /><g
       id="g1282"
       inkscape:export-filename="logo.png"
       inkscape:export-xdpi="1200"
       inkscape:export-ydpi="1200"><text
         xml:space="preserve"
         style="font-size:4.18289px;fill:#000000;stroke:#000000;stroke-width:0.207794;stroke-linecap:round;stroke-dasharray:none;stroke-opacity:1"
         x="39.578178"
         y="73.777618"
         id="text382"
         transform="scale(1.0084868,0.99158461)"><tspan
           sodipodi:role="line"
           id="tspan380"
           style="font-style:normal;font-variant:normal;font-weight:normal;font-stretch:normal;font-size:4.18289px;font-family:'Noto Sans Mono';-inkscape-font-specification:'Noto Sans Mono';stroke:#000000;stroke-width:0.207794;stroke-linecap:round;stroke-linejoin:round;stroke-dasharray:none;stroke-opacity:1"
           x="39.578178"
           y="73.777618">GPS_CLock</tspan></text><path
         d="m 64.314749,72.610889 1.502806,1.524991 c 0.91375,-0.718993 -0.26436,-2.52151 -1.502806,-1.524991 z m 1.464701,-0.67992 0.725998,0.736715 c 0.04684,0.04752 0.123849,0.04752 0.170683,0 l 0.960587,-0.974771 c 0.246501,-0.250135 0.246501,-0.65978 0,-0.909919 v 0 c -0.246497,-0.250135 -0.650182,-0.250135 -0.896679,0 l -0.471565,0.478527 -0.489024,0.496247 c -0.04725,0.0475 -0.04725,0.12527 0,0.173201 z m -0.710122,1.71672 -0.165522,0.167968 c -0.05876,0.05962 -0.154409,0.05962 -0.213554,0 -0.05876,-0.06002 -0.05876,-0.156689 0,-0.216706 l 0.165525,-0.167966 -0.674795,-0.684754 3.9e-4,-3.96e-4 c -0.0051,-0.0052 -0.0099,-0.01052 -0.01429,-0.0161 -0.06431,-0.08219 -0.0508,-0.202613 0.03056,-0.26827 0.521974,-0.420116 1.041563,-0.406824 1.440089,-0.179648 0.07343,0.04187 0.142501,0.09104 0.206408,0.146618 l 0.07899,-0.08016 -0.277458,-0.281553 c -0.06034,-0.06122 -0.09051,-0.141787 -0.09051,-0.221942 0,-0.08016 0.03017,-0.160715 0.09051,-0.221942 l 0.234987,-0.238459 -0.202836,-0.205825 -0.149248,0.15145 v 0 c -0.04841,0.04912 -0.112325,0.07413 -0.176241,0.07413 -0.06311,0 -0.126624,-0.02457 -0.175446,-0.07413 l -4.05e-4,-3.95e-4 -3.9e-4,3.95e-4 v 0 l -0.939146,-0.95342 c -0.04841,-0.04912 -0.07305,-0.113996 -0.07305,-0.178843 0,-0.06403 0.02461,-0.128493 0.07344,-0.178439 l -3.9e-4,-3.97e-4 0.512446,-0.519609 v 0 c 0.0064,-0.0065 0.01309,-0.01243 0.02025,-0.01771 0.04525,-0.03745 0.100423,-0.0564 0.155597,-0.0564 0.06311,0 0.126624,0.02458 0.175448,0.07413 l 4.05e-4,3.96e-4 4.05e-4,-3.96e-4 v 0 l 0.939153,0.953021 v 0 c 0.04841,0.04912 0.07305,0.113992 0.07305,0.17884 0,0.06446 -0.02422,0.129297 -0.07305,0.178844 v 0 l -0.149645,0.151853 0.202834,0.205829 0.512447,-0.52001 c 0.159965,-0.162328 0.371137,-0.243695 0.581909,-0.243695 0.210774,0 0.421548,0.08138 0.581912,0.243695 v 0 c 0.159965,0.162328 0.240148,0.376614 0.240148,0.5905 0,0.213885 -0.0802,0.42777 -0.240148,0.590502 l -0.512449,0.519205 0.202838,0.20583 0.149643,-0.151453 c 0.04841,-0.04912 0.112337,-0.07413 0.176241,-0.07413 0.06351,0 0.127417,0.02458 0.176242,0.07413 l 0.939151,0.95302 v 0 c 0.04841,0.04912 0.07305,0.113994 0.07305,0.178842 0,0.06445 -0.02422,0.129296 -0.07305,0.178842 v 0 l -0.512446,0.520011 c -0.04841,0.04912 -0.112323,0.07413 -0.17624,0.07413 -0.06351,0 -0.127414,-0.02458 -0.176239,-0.07413 l -0.939153,-0.953421 c -0.04841,-0.04912 -0.07305,-0.113995 -0.07305,-0.178843 0,-0.06404 0.02422,-0.128493 0.07305,-0.178036 l 3.89e-4,-3.96e-4 -3.89e-4,-3.97e-4 0.149246,-0.151853 -0.202832,-0.205831 -0.234988,0.238456 c -0.06034,0.06123 -0.139722,0.09185 -0.218712,0.09185 -0.07899,0 -0.15838,-0.03061 -0.218714,-0.09185 l -0.234986,-0.238456 -0.08534,0.08661 c 0.09805,0.131314 0.17346,0.27914 0.221094,0.433008 0.129799,0.419309 0.05558,0.882528 -0.32668,1.192683 -0.07382,0.06969 -0.189737,0.06767 -0.26158,-0.0052 z m -0.967335,0.0858 c -0.02105,-0.07612 0.02262,-0.155479 0.09804,-0.176825 0.075,-0.02135 0.153219,0.02296 0.174258,0.09949 0.03969,0.14219 0.09447,0.249735 0.165125,0.321839 0.06351,0.06485 0.142896,0.101905 0.239352,0.10996 0.07781,0.0065 0.135754,0.07573 0.129403,0.155077 -0.0064,0.07896 -0.07463,0.137755 -0.152821,0.131311 -0.165524,-0.0145 -0.303658,-0.07977 -0.415992,-0.19455 -0.105585,-0.107144 -0.184179,-0.25658 -0.237366,-0.4463 z"
         id="path576"
         style="stroke:#000000;stroke-width:0.0503653;stroke-linecap:round;stroke-linejoin:round;stroke-dasharray:none;stroke-opacity:1"
         sodipodi:nodetypes="ccccscssssccccsccccccccccssscccsssccccscccscssccccssscccsssssccccsccssscssccssccccsssccscscsccccsccss" /></g></g></svg>
